<?xml version="1.0" encoding="UTF-8"?>
<svg class="icon-image" width="50px" height="50px" viewBox="0 0 50 50" version="1.1" xmlns="http://www.w3.org/2000/svg" xmlns:xlink="http://www.w3.org/1999/xlink">
    <!-- Generator: Sketch 55.2 (78181) - https://sketchapp.com -->
    <title>icon-contact</title>
    <desc>Created with Sketch.</desc>
    <g id="icon-contact" stroke="none" stroke-width="1" fill="none" fill-rule="evenodd">
        <path d="M25,50 C38.8071187,50 50,38.8071187 50,25 C50,11.1928813 38.8071187,0 25,0 C11.1928813,0 0,11.1928813 0,25 C0,38.8071187 11.1928813,50 25,50 Z" id="Path" fill-opacity="0.1" fill="#333333" fill-rule="nonzero"></path>
        <path d="M37.9977787,32.5835651 C37.999253,32.5559116 38,32.5280502 38,32.5 L38,18.5 C38,18.4719498 37.999253,18.4440884 37.9977787,18.4164349 L30.9142136,25.5 L37.9977787,32.5835651 Z M36.5850357,33.9992493 L29.5,26.9142136 L29.2426407,27.1715729 C26.8994949,29.5147186 23.1005051,29.5147186 20.7573593,27.1715729 L20.2928932,26.7071068 L13.0580461,33.9419539 C13.1863879,33.9797704 13.3217954,34 13.4615385,34 L36.5384615,34 C36.5540414,34 36.5695674,33.9997485 36.5850357,33.9992493 Z M12,32.1715729 L18.8786797,25.2928932 L12.0022213,18.4164349 C12.000747,18.4440884 12,18.4719498 12,18.5 L12,32.1715729 Z M36.5850357,17.0007507 C36.5695674,17.0002515 36.5540414,17 36.5384615,17 L13.4615385,17 C13.4459586,17 13.4304326,17.0002515 13.4149643,17.0007507 L22.1715729,25.7573593 C23.73367,27.3194565 26.26633,27.3194565 27.8284271,25.7573593 L36.5850357,17.0007507 Z M13.4615385,15 L36.5384615,15 C38.4502164,15 40,16.5670034 40,18.5 L40,32.5 C40,34.4329966 38.4502164,36 36.5384615,36 L13.4615385,36 C11.5497836,36 10,34.4329966 10,32.5 L10,18.5 C10,16.5670034 11.5497836,15 13.4615385,15 Z" id="Path" fill="#333333" fill-rule="nonzero"></path>
    </g>
</svg>