<?xml version="1.0" encoding="UTF-8"?>
<svg class="icon-image" width="50px" height="50px" viewBox="0 0 50 50" version="1.1" xmlns="http://www.w3.org/2000/svg" xmlns:xlink="http://www.w3.org/1999/xlink">
    <!-- Generator: Sketch 55.2 (78181) - https://sketchapp.com -->
    <title>icon-release-notes</title>
    <desc>Created with Sketch.</desc>
    <g id="icon-release-notes" stroke="none" stroke-width="1" fill="none" fill-rule="evenodd">
        <path d="M25,50 C38.8071187,50 50,38.8071187 50,25 C50,11.1928813 38.8071187,0 25,0 C11.1928813,0 0,11.1928813 0,25 C0,38.8071187 11.1928813,50 25,50 Z" id="Path" fill-opacity="0.1" fill="#333333" fill-rule="nonzero"></path>
        <path d="M22,32 L34,32 L34,34 L22,34 L22,32 Z M30,17 L38,17 L38,19 L28,19 L28,9 L30,9 L30,17 Z M18.5,24.5 C17.6715729,24.5 17,23.8284271 17,23 C17,22.1715729 17.6715729,21.5 18.5,21.5 C19.3284271,21.5 20,22.1715729 20,23 C20,23.8284271 19.3284271,24.5 18.5,24.5 Z M18.5,29.5 C17.6715729,29.5 17,28.8284271 17,28 C17,27.1715729 17.6715729,26.5 18.5,26.5 C19.3284271,26.5 20,27.1715729 20,28 C20,28.8284271 19.3284271,29.5 18.5,29.5 Z M18.5,34.5 C17.6715729,34.5 17,33.8284271 17,33 C17,32.1715729 17.6715729,31.5 18.5,31.5 C19.3284271,31.5 20,32.1715729 20,33 C20,33.8284271 19.3284271,34.5 18.5,34.5 Z M22,22 L34,22 L34,24 L22,24 L22,22 Z M22,27 L34,27 L34,29 L22,29 L22,27 Z" id="Rectangle-2" fill="#333333"></path>
        <path d="M13,8 L30,8 L39,17 L39,41 L13,41 L13,8 Z M15,10 L15,39 L37,39 L37,17.8284271 L29.1715729,10 L15,10 Z" id="Path" fill="#333333" fill-rule="nonzero"></path>
    </g>
</svg>