<?xml version="1.0" encoding="UTF-8"?>
<svg class="icon-image" width="50px" height="50px" viewBox="0 0 50 50" version="1.1" xmlns="http://www.w3.org/2000/svg" xmlns:xlink="http://www.w3.org/1999/xlink">
    <!-- Generator: Sketch 55.2 (78181) - https://sketchapp.com -->
    <title>icon-search</title>
    <desc>Created with Sketch.</desc>
    <g id="icon-search" stroke="none" stroke-width="1" fill="none" fill-rule="evenodd">
        <path d="M25,50 C38.8071187,50 50,38.8071187 50,25 C50,11.1928813 38.8071187,0 25,0 C11.1928813,0 0,11.1928813 0,25 C0,38.8071187 11.1928813,50 25,50 Z" id="Path" fill-opacity="0.1" fill="#333333" fill-rule="nonzero"></path>
        <path d="M26.5780731,31.2292359 C27.3120063,31.2292359 27.9069767,31.8242063 27.9069767,32.5581395 L27.9069767,41.8604651 C27.9069767,42.5943983 27.3120063,43.1893688 26.5780731,43.1893688 L23.9202658,43.1893688 C23.1863326,43.1893688 22.5913621,42.5943983 22.5913621,41.8604651 L22.5913621,32.5581395 C22.5913621,31.8242063 23.1863326,31.2292359 23.9202658,31.2292359 L23.9202658,26.4902516 C19.0440406,25.840561 15.282392,21.6652184 15.282392,16.6112957 C15.282392,11.1067965 19.7446703,6.64451827 25.2491694,6.64451827 C30.7536686,6.64451827 35.2159468,11.1067965 35.2159468,16.6112957 C35.2159468,21.6652184 31.4542983,25.840561 26.5780731,26.4902516 L26.5780731,31.2292359 Z M25.2491694,23.9202658 C29.2858022,23.9202658 32.5581395,20.6479284 32.5581395,16.6112957 C32.5581395,12.574663 29.2858022,9.30232558 25.2491694,9.30232558 C21.2125367,9.30232558 17.9401993,12.574663 17.9401993,16.6112957 C17.9401993,20.6479284 21.2125367,23.9202658 25.2491694,23.9202658 Z" id="Rectangle-2" fill="#333333" transform="translate(25.249169, 24.916944) rotate(-45.000000) translate(-25.249169, -24.916944) "></path>
    </g>
</svg>