<?xml version="1.0" encoding="UTF-8"?>
<svg class="icon-image" width="50px" height="50px" viewBox="0 0 50 50" version="1.1" xmlns="http://www.w3.org/2000/svg" xmlns:xlink="http://www.w3.org/1999/xlink">
    <!-- Generator: Sketch 55.2 (78181) - https://sketchapp.com -->
    <title>icon-license</title>
    <desc>Created with Sketch.</desc>
    <g id="icon-license" stroke="none" stroke-width="1" fill="none" fill-rule="evenodd">
        <path d="M37.8918664,21.5946844 C38.1255395,21.5946844 38.4447527,21.7290356 38.6054343,21.8953722 L40.9430984,24.3153075 C41.2640764,24.6475819 41.2830605,25.1978666 40.9798645,25.5509665 L38.4528691,28.4938876 C38.376709,28.5825831 38.2509717,28.581042 38.1779691,28.4972644 L37.125107,27.2890036 C37.0494441,27.202173 36.9274097,27.205226 36.8534315,27.2947387 L35.8643381,28.4915293 C35.7899588,28.5815273 35.6689651,28.581042 35.5949869,28.4915293 L34.6058935,27.2947387 C34.5315142,27.2047407 34.4105205,27.205226 34.3365423,27.2947387 L33.3474489,28.4915293 C33.2730696,28.5815273 33.1520759,28.581042 33.0780976,28.4915293 L32.0890043,27.2947387 C32.014625,27.2047407 31.8936312,27.205226 31.819653,27.2947387 L30.8305596,28.4915293 C30.7561804,28.5815273 30.6351866,28.581042 30.5612084,28.4915293 L29.572115,27.2947387 C29.4977357,27.2047407 29.1454641,26.9933555 29.0260535,26.9933555 L26.7550586,26.9933555 C26.3869157,26.9933555 25.9622963,27.2710987 25.8181046,27.5915096 C25.8181046,27.5915096 25.7379506,27.760619 25.6119792,28.0623205 C24.3478712,31.0898606 21.3135685,33.2225914 17.7713419,33.2225914 C13.0940334,33.2225914 9.30232558,29.5040262 9.30232558,24.9169435 C9.30232558,20.3298609 13.0940334,16.6112957 17.7713419,16.6112957 C20.8408033,16.6112957 23.5288739,18.2127248 25.0142379,20.6101107 C25.2094382,20.9251649 25.2325549,20.9985585 25.2325549,20.9985585 C25.3999563,21.3277896 25.841098,21.5946842 26.1999852,21.5946842 L37.8918664,21.5946844 Z M17.4418605,25 C17.4418605,23.3945211 16.1403626,22.0930233 14.5348837,22.0930233 C12.9294048,22.0930233 11.627907,23.3945211 11.627907,25 C11.627907,26.6054789 12.9294048,27.9069767 14.5348837,27.9069767 C16.1403626,27.9069767 17.4418605,26.6054789 17.4418605,25 Z" id="Combined-Shape" fill="#333333"></path>
        <path d="M25,50 C38.8071187,50 50,38.8071187 50,25 C50,11.1928813 38.8071187,0 25,0 C11.1928813,0 0,11.1928813 0,25 C0,38.8071187 11.1928813,50 25,50 Z" id="Path" fill-opacity="0.1" fill="#333333"></path>
    </g>
</svg>