<?xml version="1.0" encoding="UTF-8"?>
<svg class="icon-image" width="50px" height="50px" viewBox="0 0 50 50" version="1.1" xmlns="http://www.w3.org/2000/svg" xmlns:xlink="http://www.w3.org/1999/xlink">
    <!-- Generator: Sketch 55.2 (78181) - https://sketchapp.com -->
    <title>icon-support</title>
    <desc>Created with Sketch.</desc>
    <g id="icon-support" stroke="none" stroke-width="1" fill="none" fill-rule="evenodd">
        <path d="M25,50 C38.8071187,50 50,38.8071187 50,25 C50,11.1928813 38.8071187,0 25,0 C11.1928813,0 0,11.1928813 0,25 C0,38.8071187 11.1928813,50 25,50 Z" id="Path" fill-opacity="0.1" fill="#333333" fill-rule="nonzero"></path>
        <path d="M14.6179402,40.5315615 C17.5536731,40.5315615 19.9335548,38.1516797 19.9335548,35.2159468 C19.9335548,34.8053348 19.8938747,34.682419 19.8938747,34.682419 C19.8414075,34.317527 20.0118445,33.8087535 20.2655852,33.5550128 L32.890561,20.930037 C33.1483182,20.6722798 33.6470411,20.5089229 34.0179672,20.5583265 C34.0179672,20.5583265 34.140883,20.5980066 34.551495,20.5980066 C37.4872279,20.5980066 39.8671096,18.2181249 39.8671096,15.282392 C39.8671096,14.6835216 39.7295993,14.2185526 39.7295993,14.2185526 C39.6500094,13.8607298 39.3764936,13.7796526 39.1103893,14.0457569 L36.7834443,16.3727019 C36.6516726,16.5044736 36.4020972,16.6112957 36.2141536,16.6112957 L33.8949001,16.6112957 C33.5235942,16.6112957 33.2225914,16.3047005 33.2225914,15.938987 L33.2225914,13.6197334 C33.2225914,13.4370946 33.3237588,13.1878691 33.4611852,13.0504427 L35.7881301,10.7234978 C36.0505205,10.4611074 35.9741551,10.1802255 35.6153344,10.1042877 C35.6153344,10.1042877 35.1503654,9.96677741 34.551495,9.96677741 C31.6157621,9.96677741 29.2358804,12.3466591 29.2358804,15.282392 C29.2358804,15.6930041 29.2755605,15.8159199 29.2755605,15.8159199 C29.3280277,16.1808119 29.1575907,16.6895854 28.90385,16.9433261 L16.2788742,29.5683018 C16.021117,29.8260591 15.5223941,29.9894159 15.1514681,29.9400123 C15.1514681,29.9400123 15.0285523,29.9003322 14.6179402,29.9003322 C11.6822073,29.9003322 9.30232558,32.280214 9.30232558,35.2159468 C9.30232558,35.8148173 9.43983591,36.2797862 9.43983591,36.2797862 C9.51942582,36.637609 9.79294159,36.7186863 10.059046,36.4525819 L12.3859909,34.125637 C12.5177626,33.9938653 12.767338,33.8870432 12.9552816,33.8870432 L15.2745351,33.8870432 C15.645841,33.8870432 15.9468439,34.1936384 15.9468439,34.5593519 L15.9468439,36.8786055 C15.9468439,37.0612443 15.8456764,37.3104698 15.70825,37.4478961 L13.3813051,39.7748411 C13.1189147,40.0372314 13.1952801,40.3181133 13.5541008,40.3940511 C13.5541008,40.3940511 14.0190698,40.5315615 14.6179402,40.5315615 Z" id="Combined-Shape" fill="#333333" fill-rule="nonzero"></path>
    </g>
</svg>